<svg width="115" height="43" viewBox="0 0 115 43" fill="none" xmlns="http://www.w3.org/2000/svg">
<path d="M54.4703 0.28493C56.1879 -0.122232 58.9005 -0.375457 60.8501 1.57692L61.0367 1.77223C62.6057 3.50558 62.8003 5.6601 62.5435 7.44411C62.2914 9.19528 61.5617 11.0073 60.6997 12.7097C58.968 16.1299 56.2135 20.0317 53.6138 23.656C50.9273 27.4015 48.3979 30.862 46.7789 33.7156C46.4153 34.3564 46.1256 34.9226 45.8999 35.4148C46.9892 34.919 48.3448 34.1818 49.9449 33.2049C54.3594 30.5094 59.9406 26.4456 65.6314 22.2381C71.2532 18.0815 76.9867 13.7807 81.5181 10.7849C83.7667 9.29834 85.8734 8.02896 87.607 7.25954C88.4529 6.8841 89.4199 6.53043 90.3843 6.41091C91.2659 6.30166 93.0098 6.29798 94.2945 7.74391L94.4976 7.9861C95.465 9.20809 95.7406 10.6226 95.7007 11.8591C95.66 13.118 95.2956 14.346 94.8785 15.408C94.05 17.517 92.6512 19.838 91.441 21.8406C90.1429 23.9885 89.0351 25.813 88.4009 27.3181C88.354 27.4294 88.3146 27.5356 88.2769 27.6336C88.6949 27.5767 89.1987 27.4828 89.7896 27.3406C92.0658 26.7927 94.9613 25.7142 97.9058 24.4558C100.819 23.2107 103.651 21.8457 105.764 20.7869C106.818 20.2589 107.687 19.8098 108.291 19.4939C108.592 19.336 108.828 19.211 108.986 19.1267C109.065 19.0847 109.125 19.0532 109.165 19.032C109.184 19.0215 109.199 19.0136 109.209 19.0086C109.213 19.0061 109.216 19.0038 109.218 19.0027L109.22 19.0017L109.37 18.9256C110.922 18.1858 112.798 18.7858 113.625 20.3152C114.478 21.8941 113.89 23.8659 112.311 24.7195L110.766 21.8611C112.301 24.6993 112.311 24.7195 112.311 24.7195L112.309 24.7205L112.305 24.7234C112.302 24.7252 112.297 24.727 112.291 24.7302C112.278 24.7368 112.261 24.7465 112.239 24.7586C112.193 24.7829 112.127 24.8186 112.042 24.864C111.871 24.9551 111.621 25.0872 111.305 25.2527C110.673 25.5837 109.769 26.0508 108.676 26.5984C106.495 27.6913 103.537 29.1178 100.46 30.4324C97.4154 31.7338 94.1222 32.9831 91.3101 33.6599C89.9187 33.9948 88.4679 34.235 87.1412 34.2C85.9295 34.1679 84.0552 33.8854 82.7486 32.3611C81.6199 31.0442 81.3973 29.4874 81.4917 28.2263C81.5829 27.0106 81.9781 25.8214 82.4107 24.7947C83.2711 22.7527 84.6795 20.4606 85.8775 18.4783C86.8421 16.8821 87.6892 15.4562 88.3003 14.2127C87.3806 14.7416 86.3108 15.4083 85.1031 16.2068C80.755 19.0814 75.2113 23.2394 69.4966 27.4646C63.8511 31.6387 58.0352 35.8807 53.3316 38.7527C51.0032 40.1744 48.7666 41.3744 46.8619 42.033C45.9206 42.3584 44.8455 42.6293 43.7671 42.6199C42.6528 42.6102 41.1826 42.2815 40.0884 41.0164C38.5137 39.1949 38.6566 36.9474 39.023 35.408C39.4044 33.8062 40.2134 32.1162 41.1255 30.5086C42.9604 27.2745 45.7571 23.4561 48.3316 19.867C50.9928 16.1568 53.4358 12.6668 54.9009 9.77321C55.616 8.3608 55.982 7.30468 56.0982 6.58083C56.0575 6.58966 56.0141 6.59853 55.9693 6.60915C54.8553 6.87328 53.2529 7.55395 51.19 8.68434C47.1093 10.9204 42.0456 14.4522 36.9214 18.1511C31.8883 21.7843 26.7703 25.5996 22.8345 28.1677C20.8909 29.436 19.0261 30.5419 17.4888 31.1599C16.7618 31.4522 15.772 31.7779 14.732 31.7634C14.1748 31.7557 13.4396 31.6489 12.7056 31.2381C11.9207 30.7985 11.3467 30.1269 11.0152 29.3533C9.99909 26.9815 10.583 24.7068 11.2779 23.0799C11.9489 21.5086 13.0233 19.8907 13.7193 18.7586C14.5422 17.4198 14.954 16.5897 15.0728 15.9998C15.128 15.7256 15.1345 15.7052 14.9039 15.4802C14.7196 15.3006 14.2941 15.0511 13.2818 15.0418C12.2669 15.0324 11.0166 15.2755 9.68803 15.6931C8.38742 16.102 7.16888 16.6274 6.26225 17.0593C5.81357 17.2731 5.45147 17.4583 5.20756 17.5877C5.08593 17.6522 4.99412 17.703 4.93608 17.7351C4.90738 17.751 4.88709 17.7628 4.87553 17.7693C4.87146 17.7716 4.86757 17.7722 4.86576 17.7732C3.3092 18.665 1.32415 18.1272 0.431194 16.5711C-0.461626 15.0143 0.0767225 13.0287 1.63334 12.1355L3.0933 14.6795C1.70225 12.2548 1.63676 12.1403 1.63432 12.1345L1.64018 12.1316C1.64311 12.1299 1.6468 12.1271 1.65092 12.1248C1.65919 12.1201 1.67021 12.1145 1.68315 12.1072C1.70932 12.0924 1.74507 12.0723 1.78959 12.0476C1.87887 11.9982 2.00418 11.929 2.16166 11.8455C2.47623 11.6786 2.92202 11.4505 3.46635 11.1912C4.54585 10.6769 6.05853 10.0211 7.73881 9.49294C9.39128 8.97353 11.3725 8.52355 13.3423 8.54177C15.3145 8.56001 17.6291 9.05881 19.4419 10.8269L19.6226 11.0095C21.4503 12.9049 21.8716 15.1608 21.4449 17.282C21.0678 19.1558 20.0316 20.9007 19.2564 22.1619C19.0447 22.5063 18.845 22.8253 18.6587 23.1248C18.8601 22.9964 19.0689 22.8639 19.2828 22.7244C23.0478 20.2677 27.9325 16.6236 33.1177 12.8806C38.212 9.20331 43.5831 5.44109 48.0669 2.98415C50.2858 1.76835 52.4978 0.752547 54.4703 0.28493Z" fill="white"/>
</svg>
