<svg width="324" height="324" viewBox="0 0 324 324" fill="none" xmlns="http://www.w3.org/2000/svg">
<path fill-rule="evenodd" clip-rule="evenodd" d="M72.3972 0C104.977 1.72752e-06 131.388 26.4109 131.388 58.9903V278.863C131.388 296.264 145.493 310.37 162.894 310.37C180.294 310.37 194.4 296.264 194.4 278.863V58.9903C194.4 26.4109 220.811 4.03193e-07 253.39 0H265.01C297.589 4.03088e-07 324 26.4109 324 58.9903V302.996C324 314.596 314.596 324 302.996 324C291.396 324 281.992 314.596 281.992 302.996V199.986C281.992 179.007 264.985 162 244.006 162C223.026 162 206.019 179.007 206.019 199.986V280.874C206.019 304.692 186.711 324 162.894 324C139.076 324 119.768 304.692 119.768 280.874V197.975C119.768 178.107 103.662 162 83.7931 162C63.9246 162 47.8179 178.107 47.8179 197.975V300.091C47.8179 313.296 37.1135 324 23.909 324C10.7044 324 4.08536e-07 313.296 0 300.091V58.9903C0 26.4109 26.4109 0 58.9903 0H72.3972ZM303.443 289.366C296.285 289.366 290.483 295.168 290.483 302.326C290.483 309.483 296.285 315.286 303.443 315.286C310.6 315.286 316.403 309.483 316.403 302.326C316.403 295.168 310.6 289.366 303.443 289.366ZM23.6855 288.472C16.5279 288.472 10.7255 294.274 10.7255 301.432C10.7255 308.589 16.5279 314.392 23.6855 314.392C30.8431 314.392 36.6455 308.589 36.6455 301.432C36.6455 294.274 30.8431 288.472 23.6855 288.472Z" fill="white"/>
<path d="M179 280.5C179 289.613 171.613 297 162.5 297C153.387 297 146 289.613 146 280.5C146 271.387 153.387 264 162.5 264C171.613 264 179 271.387 179 280.5Z" fill="white"/>
</svg>
