<svg width="1413" height="500" viewBox="0 0 1413 500" fill="none" xmlns="http://www.w3.org/2000/svg">
<path fill-rule="evenodd" clip-rule="evenodd" d="M470.059 404.092C471.775 404.092 473.226 404.711 474.414 405.948C475.645 407.186 476.261 408.667 476.261 410.391V480.408H520.599V410.258C520.599 408.534 521.193 407.075 522.38 405.882C523.612 404.688 525.085 404.092 526.8 404.092H539.271C540.986 404.092 542.438 404.711 543.626 405.948C544.857 407.186 545.472 408.667 545.472 410.391V480.408H552.598C554.314 480.408 555.788 481.027 557.019 482.265C558.25 483.502 558.866 484.983 558.866 486.707V492.939C558.866 494.663 558.251 496.144 557.019 497.382C555.788 498.575 554.314 499.172 552.598 499.172H457.655C455.94 499.172 454.466 498.575 453.235 497.382C452.003 496.144 451.387 494.663 451.387 492.939V410.258C451.387 408.534 452.003 407.075 453.235 405.882C454.466 404.688 455.94 404.092 457.655 404.092H470.059ZM650.642 404.092C652.358 404.092 653.809 404.711 654.997 405.948C656.228 407.186 656.844 408.667 656.844 410.391V416.623C656.844 418.347 656.228 419.828 654.997 421.065C653.809 422.259 652.358 422.855 650.642 422.855H593.175V442.15H642.659C644.374 442.15 645.826 442.769 647.013 444.007C648.245 445.2 648.861 446.659 648.861 448.383V454.615C648.861 456.339 648.245 457.82 647.013 459.058C645.826 460.251 644.374 460.848 642.659 460.848H593.175V480.408H650.51C652.226 480.408 653.655 481.005 654.798 482.198C655.986 483.392 656.581 484.85 656.581 486.574V492.939C656.581 494.663 655.965 496.144 654.733 497.382C653.501 498.575 652.028 499.172 650.312 499.172H574.569C572.854 499.172 571.38 498.575 570.148 497.382C568.917 496.144 568.301 494.619 568.301 492.807V410.258C568.301 408.534 568.917 407.075 570.148 405.882C571.38 404.688 572.854 404.092 574.569 404.092H650.642ZM687.656 404.092C689.371 404.092 690.823 404.711 692.01 405.948C693.242 407.186 693.858 408.667 693.858 410.391V440.228H739.252V410.391C739.252 408.667 739.867 407.186 741.098 405.948C742.33 404.711 743.804 404.092 745.519 404.092H757.791C759.594 404.092 761.09 404.711 762.278 405.948C763.509 407.186 764.125 408.667 764.125 410.391V492.939C764.125 494.663 763.487 496.144 762.212 497.382C760.98 498.575 759.506 499.172 757.791 499.172H745.519C743.804 499.172 742.33 498.598 741.098 497.448C739.867 496.255 739.252 494.796 739.252 493.072V458.991H693.858V493.072C693.858 494.796 693.242 496.255 692.01 497.448C690.823 498.597 689.371 499.172 687.656 499.172H675.384C673.669 499.172 672.173 498.575 670.897 497.382C669.622 496.144 668.984 494.663 668.984 492.939V410.391C668.984 408.667 669.6 407.186 670.832 405.948C672.063 404.711 673.581 404.092 675.384 404.092H687.656ZM864.874 404.092C866.677 404.092 868.173 404.688 869.361 405.882C870.548 407.075 871.142 408.578 871.142 410.391V416.623C871.142 418.435 870.548 419.938 869.361 421.132C868.173 422.281 866.677 422.855 864.874 422.855H835.448V493.072C835.448 494.796 834.832 496.255 833.6 497.448C832.413 498.597 830.961 499.172 829.246 499.172H816.776C815.061 499.172 813.587 498.597 812.355 497.448C811.168 496.255 810.574 494.796 810.574 493.072V422.855H781.147C779.344 422.855 777.848 422.281 776.661 421.132C775.473 419.938 774.88 418.435 774.88 416.623V410.391C774.88 408.578 775.473 407.075 776.661 405.882C777.848 404.688 779.344 404.092 781.147 404.092H864.874ZM938.44 404.092C965.007 404.092 978.291 416.424 978.291 441.089C978.335 465.71 965.051 478.02 938.44 478.021H906.837V492.939C906.836 494.663 906.22 496.144 904.989 497.382C903.801 498.575 902.35 499.172 900.634 499.172H888.23C886.515 499.172 885.042 498.575 883.81 497.382C882.579 496.144 881.963 494.663 881.963 492.939V410.391C881.963 408.667 882.556 407.186 883.744 405.948C884.931 404.711 886.383 404.092 888.098 404.092H938.44ZM906.837 459.257H930.919C938.308 459.257 943.916 458.019 947.743 455.544C951.57 453.024 953.483 448.206 953.483 441.089C953.483 433.928 951.569 429.11 947.743 426.635C943.916 424.115 938.308 422.855 930.919 422.855H906.837V459.257ZM197.98 191.029C204.222 189.552 214.081 188.633 221.169 195.718L221.847 196.431L222.369 197.026C227.594 203.21 228.227 210.74 227.324 217.011C226.408 223.366 223.756 229.942 220.623 236.12C214.329 248.531 204.316 262.692 194.867 275.845C185.103 289.436 175.913 301.996 170.028 312.352C168.706 314.677 167.65 316.731 166.83 318.518C170.789 316.718 175.717 314.043 181.532 310.498C197.578 300.716 217.866 285.965 238.55 270.695C258.983 255.612 279.822 240.006 296.291 229.135C304.462 223.741 312.118 219.133 318.419 216.341C321.493 214.978 325.011 213.695 328.516 213.261C331.52 212.889 337.282 212.856 341.838 217.177L342.732 218.103L343.467 218.978C346.985 223.413 347.985 228.549 347.84 233.036C347.693 237.604 346.367 242.059 344.851 245.912C341.84 253.565 336.756 261.986 332.357 269.253C327.639 277.049 323.613 283.675 321.307 289.138C321.137 289.541 320.994 289.924 320.857 290.279C322.376 290.073 324.205 289.735 326.351 289.22C334.625 287.232 345.152 283.314 355.855 278.747C366.445 274.228 376.742 269.271 384.423 265.429C388.25 263.513 391.412 261.882 393.604 260.736C394.698 260.164 395.552 259.713 396.127 259.407C396.414 259.255 396.635 259.14 396.777 259.063C396.85 259.026 396.901 258.993 396.933 258.975L396.977 258.954L397.518 258.678C403.159 255.992 409.982 258.17 412.988 263.721C416.092 269.451 413.954 276.607 408.218 279.704L408.212 279.707C408.208 279.709 408.201 279.712 408.197 279.715C408.182 279.721 408.164 279.731 408.142 279.743C408.099 279.767 408.037 279.802 407.954 279.846C407.79 279.934 407.546 280.063 407.237 280.229C406.615 280.559 405.711 281.038 404.562 281.639C402.261 282.84 398.979 284.532 395.007 286.52C387.079 290.485 376.324 295.665 365.144 300.437C354.076 305.159 342.106 309.696 331.885 312.152C326.828 313.367 321.554 314.233 316.732 314.105C312.603 313.996 306.357 313.093 301.678 308.421L300.766 307.436C296.662 302.655 295.852 297.003 296.195 292.427C296.526 288.015 297.966 283.699 299.539 279.973C302.666 272.563 307.781 264.247 312.135 257.054C315.641 251.262 318.721 246.087 320.942 241.574C317.6 243.494 313.714 245.914 309.325 248.811C293.522 259.243 273.37 274.33 252.6 289.663C232.081 304.811 210.941 320.209 193.844 330.631C185.382 335.79 177.253 340.145 170.33 342.535C166.909 343.716 163 344.699 159.082 344.665C155.032 344.629 149.684 343.439 145.707 338.847C139.983 332.235 140.503 324.075 141.835 318.489C143.221 312.676 146.165 306.544 149.48 300.709C156.149 288.973 166.314 275.119 175.672 262.094C185.344 248.629 194.22 235.961 199.546 225.46C202.144 220.336 203.474 216.505 203.897 213.878C203.75 213.91 203.594 213.942 203.432 213.98C199.384 214.939 193.559 217.41 186.061 221.512C171.229 229.626 152.823 242.44 134.199 255.863C115.905 269.048 97.3031 282.898 82.9977 292.218C75.9341 296.82 69.1545 300.834 63.568 303.077C60.926 304.138 57.3264 305.318 53.5475 305.267C51.5223 305.238 48.8466 304.848 46.1784 303.356C43.3254 301.76 41.2397 299.324 40.0348 296.517C36.3417 287.909 38.4645 279.653 40.9899 273.75C43.4288 268.048 47.3332 262.176 49.8629 258.067C52.8542 253.209 54.3514 250.197 54.7829 248.056C54.9329 247.31 54.9843 247.083 54.6481 246.674L54.1686 246.174C53.5001 245.523 51.959 244.617 48.2799 244.583C44.5918 244.549 40.0462 245.432 35.2174 246.947C30.4903 248.431 26.0577 250.338 22.7624 251.905C21.1326 252.68 19.8158 253.353 18.9293 253.822C18.4877 254.056 18.1529 254.241 17.942 254.357C17.8394 254.414 17.7646 254.454 17.7223 254.478C17.7079 254.485 17.694 254.492 17.6872 254.495C12.0299 257.731 4.8154 255.781 1.569 250.133C-1.67795 244.483 0.276992 237.278 5.93423 234.036L11.6354 243.955C6.19444 234.489 5.94708 234.053 5.93814 234.032L5.95962 234.021C5.97002 234.016 5.98422 234.009 5.99869 234.001C6.02895 233.984 6.0683 233.957 6.11587 233.93C6.21094 233.876 6.34128 233.803 6.50259 233.714C6.8267 233.535 7.28432 233.29 7.85513 232.987C8.99838 232.382 10.6193 231.546 12.5973 230.605C16.5211 228.739 22.0228 226.359 28.1295 224.442C34.1341 222.558 41.3313 220.929 48.4889 220.994C55.6569 221.06 64.0731 222.87 70.6628 229.287L71.3239 229.946C77.9683 236.825 79.4978 245.016 77.9469 252.713C76.577 259.513 72.8098 265.845 69.9919 270.422C69.2235 271.67 68.5003 272.831 67.8239 273.917C68.5541 273.452 69.309 272.965 70.0846 272.46C83.7692 263.544 101.525 250.323 120.371 236.74C138.887 223.395 158.409 209.742 174.706 200.825C182.77 196.413 190.811 192.726 197.98 191.029ZM408.182 214.392C425.516 214.392 438.652 218.305 447.583 226.129C456.557 233.953 461.046 246.367 461.046 263.369C461.046 280.371 456.557 292.807 447.583 300.674C438.652 308.498 425.516 312.411 408.182 312.411C395.712 312.411 385.408 310.376 377.262 306.309C386.451 302.289 394.913 298.363 401.797 295.078C402.276 294.849 402.745 294.616 403.211 294.394C404.784 294.556 406.441 294.642 408.182 294.642C418.076 294.642 425.232 292.043 429.656 286.842C434.076 281.597 436.286 273.793 436.286 263.434C436.286 253.031 434.076 245.207 429.656 239.962C425.233 234.717 418.076 232.094 408.182 232.094C398.332 232.094 391.176 234.717 386.713 239.962C383.252 244.064 381.151 249.744 380.395 257.001C373.191 260.408 364.581 264.369 355.454 268.285C355.366 266.692 355.323 265.053 355.323 263.369C355.323 246.367 359.809 233.953 368.783 226.129C377.757 218.305 390.889 214.392 408.182 214.392ZM631.578 214.392C648.911 214.392 662.044 218.305 670.978 226.129C679.948 233.953 684.441 246.367 684.441 263.369C684.441 280.371 679.952 292.807 670.978 300.674C662.044 308.498 648.911 312.411 631.578 312.411C614.284 312.411 601.151 308.498 592.177 300.674C583.203 292.806 578.718 280.371 578.718 263.369C578.718 246.367 583.203 233.953 592.177 226.129C601.151 218.305 614.284 214.392 631.578 214.392ZM559.738 216.358C561.272 216.358 562.562 216.994 563.613 218.262C564.707 219.529 565.255 220.973 565.255 222.589V304.214C565.255 305.919 564.667 307.385 563.482 308.609C562.344 309.789 560.919 310.377 559.214 310.377H546.672C544.967 310.377 543.499 309.789 542.27 308.609C541.089 307.385 540.5 305.918 540.5 304.214V234.915H524.478C520.276 234.915 516.598 236.116 513.447 238.52C510.339 240.88 508.234 244.071 507.14 248.092L492.104 304.214C491.664 306.006 490.683 307.493 489.149 308.673C487.619 309.809 485.997 310.377 484.289 310.377H470.957C469.427 310.377 468.242 309.809 467.414 308.673C466.799 307.887 466.494 307.035 466.494 306.117C466.537 305.724 466.603 305.307 466.69 304.87L483.37 241.929C487.837 224.926 502.346 216.402 526.906 216.358H559.738ZM786.023 216.358C787.731 216.358 789.174 216.951 790.355 218.131C791.58 219.311 792.195 220.754 792.195 222.458V304.346C792.195 306.05 791.58 307.493 790.355 308.673C789.174 309.809 787.731 310.377 786.023 310.377H690.544C688.839 310.377 687.37 309.788 686.145 308.609C684.964 307.385 684.372 305.918 684.372 304.214V297.92C684.372 296.215 684.964 294.773 686.145 293.593C687.374 292.413 688.839 291.824 690.544 291.824H695.665L707.88 242.19C712.082 225.013 726.312 216.402 750.563 216.358H786.023ZM892.996 216.358C894.7 216.359 896.147 216.971 897.328 218.194C898.553 219.418 899.167 220.885 899.167 222.589V228.752C899.167 230.455 898.553 231.92 897.328 233.143C896.147 234.322 894.7 234.915 892.996 234.915H835.797V253.992H885.047C886.755 253.992 888.197 254.604 889.379 255.828C890.607 257.008 891.218 258.451 891.218 260.155V266.318C891.218 268.023 890.607 269.489 889.379 270.713C888.197 271.892 886.755 272.481 885.047 272.481H835.797V291.824H892.861C894.569 291.825 895.99 292.413 897.128 293.593C898.309 294.773 898.905 296.215 898.905 297.92V304.214C898.905 305.919 898.291 307.385 897.066 308.609C895.838 309.789 894.369 310.377 892.665 310.377H817.278C815.573 310.377 814.108 309.788 812.883 308.609C811.655 307.385 811.044 305.875 811.044 304.083V222.458C811.044 220.753 811.655 219.311 812.883 218.131C814.108 216.951 815.573 216.358 817.278 216.358H892.996ZM922.411 216.228C926.351 216.228 929.506 218.35 931.869 222.589L942.046 240.685C944.626 245.317 947.385 248.704 950.318 250.846C953.251 252.944 956.646 253.992 960.499 253.992H963.45V222.589C963.45 220.885 964.042 219.398 965.227 218.131C966.452 216.863 967.917 216.228 969.626 216.228H982.038C983.742 216.228 985.189 216.864 986.371 218.131C987.595 219.398 988.21 220.885 988.21 222.589V253.992H991.161C995.013 253.992 998.387 252.943 1001.28 250.846C1004.21 248.748 1006.96 245.361 1009.55 240.685L1019.79 222.589C1022.11 218.393 1025.24 216.271 1029.18 216.228H1044.42C1046.12 216.228 1047.13 216.84 1047.44 218.063C1047.53 218.369 1047.57 218.676 1047.57 218.981C1047.57 219.987 1047.2 221.191 1046.45 222.589L1032.2 248.354C1030.15 252.112 1027.83 255.216 1025.24 257.664C1022.71 260.112 1019.35 261.839 1015.2 262.845C1018.09 263.457 1021.04 265.269 1024.06 268.285C1027.13 271.301 1029.84 274.58 1032.2 278.12L1048.55 304.214C1049.3 305.481 1049.69 306.574 1049.74 307.492C1049.74 307.885 1049.67 308.26 1049.54 308.609C1049.1 309.789 1048.03 310.377 1046.32 310.377H1031.22C1029.51 310.377 1027.67 309.789 1025.7 308.609C1023.73 307.386 1022.22 305.918 1021.17 304.214L1009.55 285.924C1006.79 281.466 1004.01 278.12 1001.21 275.891C998.452 273.618 995.101 272.481 991.161 272.481H988.21V304.346C988.21 306.05 987.596 307.493 986.371 308.673C985.189 309.809 983.742 310.377 982.038 310.377H969.626C967.917 310.377 966.452 309.809 965.227 308.673C964.042 307.493 963.45 306.05 963.45 304.346V272.481H960.499C956.559 272.481 953.186 273.619 950.387 275.891C947.629 278.12 944.844 281.466 942.046 285.924L930.487 304.214C929.393 305.918 927.859 307.385 925.889 308.609C923.967 309.788 922.149 310.377 920.441 310.377H905.339C903.634 310.377 902.559 309.788 902.119 308.609C901.988 308.26 901.925 307.885 901.925 307.492C901.926 306.531 902.293 305.438 903.038 304.214L919.456 278.12C921.775 274.536 924.468 271.257 927.532 268.285C930.596 265.27 933.551 263.457 936.397 262.845C932.283 261.84 928.935 260.111 926.351 257.664C923.814 255.216 921.513 252.112 919.456 248.354L905.208 222.589C904.463 221.234 904.089 220.03 904.089 218.981C904.089 218.676 904.132 218.369 904.219 218.063C904.528 216.84 905.535 216.228 907.24 216.228H922.411ZM1077.71 216.358C1079.42 216.358 1080.86 216.971 1082.04 218.194C1083.27 219.418 1083.88 220.884 1083.88 222.589V252.093H1129.06V222.589C1129.06 220.885 1129.67 219.418 1130.9 218.194C1132.12 216.971 1133.59 216.358 1135.3 216.358H1147.51C1149.31 216.359 1150.8 216.971 1151.98 218.194C1153.21 219.418 1153.82 220.885 1153.82 222.589V304.214C1153.82 305.919 1153.18 307.385 1151.91 308.609C1150.69 309.788 1149.22 310.377 1147.51 310.377H1135.3C1133.59 310.377 1132.12 309.809 1130.9 308.673C1129.67 307.493 1129.06 306.05 1129.06 304.346V270.646H1083.88V304.346C1083.88 306.05 1083.27 307.493 1082.04 308.673C1080.86 309.809 1079.42 310.377 1077.71 310.377H1065.49C1063.79 310.377 1062.3 309.789 1061.03 308.609C1059.76 307.385 1059.13 305.918 1059.13 304.214V222.589C1059.13 220.884 1059.74 219.418 1060.97 218.194C1062.19 216.971 1063.7 216.358 1065.49 216.358H1077.71ZM1191.18 216.358C1192.89 216.358 1194.33 216.971 1195.51 218.194C1196.74 219.418 1197.35 220.884 1197.35 222.589V248.354H1224.41C1234.74 248.354 1243.27 251.087 1250.02 256.551C1256.8 262.015 1260.2 269.62 1260.2 279.367C1260.2 289.113 1256.8 296.72 1250.02 302.184C1243.23 307.646 1234.69 310.377 1224.41 310.377H1178.51C1176.89 310.377 1175.49 309.764 1174.31 308.541C1173.17 307.273 1172.6 305.787 1172.6 304.083V222.589C1172.6 220.798 1173.19 219.311 1174.37 218.131C1175.55 216.951 1177.04 216.358 1178.83 216.358H1191.18ZM1292.04 216.358C1293.84 216.358 1295.33 216.971 1296.51 218.194C1297.73 219.418 1298.35 220.884 1298.35 222.589V304.214C1298.35 305.919 1297.71 307.385 1296.45 308.609C1295.22 309.789 1293.75 310.377 1292.04 310.377H1279.57C1277.86 310.377 1276.39 309.809 1275.17 308.673C1273.94 307.493 1273.33 306.05 1273.33 304.346V222.589C1273.33 220.884 1273.94 219.418 1275.17 218.194C1276.39 216.971 1277.86 216.359 1279.57 216.358H1292.04ZM1334.99 216.358C1336.7 216.358 1338.14 216.951 1339.32 218.131C1340.55 219.311 1341.16 220.754 1341.16 222.458V288.086L1378.53 222.589C1379.53 220.884 1380.91 219.418 1382.66 218.194C1384.41 216.971 1386.03 216.358 1387.52 216.358H1406.89C1408.6 216.359 1410.05 216.971 1411.23 218.194C1412.41 219.418 1413 220.885 1413 222.589V304.214C1413 305.919 1412.38 307.385 1411.16 308.609C1409.94 309.788 1408.47 310.377 1406.76 310.377H1395.2C1393.5 310.377 1392.03 309.789 1390.8 308.609C1389.62 307.385 1389.03 305.918 1389.03 304.214V243.371L1354.76 304.214C1353.75 305.918 1352.33 307.385 1350.49 308.609C1348.65 309.788 1346.87 310.377 1345.17 310.377H1323.43C1321.72 310.377 1320.26 309.788 1319.03 308.609C1317.81 307.385 1317.2 305.918 1317.2 304.214V222.589C1317.2 220.798 1317.79 219.311 1318.97 218.131C1320.15 216.951 1321.64 216.359 1323.43 216.358H1334.99ZM631.578 232.094C621.728 232.094 614.571 234.717 610.104 239.962C605.684 245.207 603.47 253.031 603.47 263.434C603.47 273.793 605.684 281.597 610.104 286.842C614.571 292.042 621.728 294.642 631.578 294.642C641.471 294.642 648.628 292.043 653.051 286.842C657.471 281.597 659.681 273.793 659.681 263.434C659.681 253.031 657.471 245.207 653.051 239.962C648.628 234.717 641.471 232.094 631.578 232.094ZM747.874 234.915C743.759 234.915 740.32 236.051 737.561 238.324C734.846 240.597 732.989 243.765 731.982 247.829L720.951 291.824H767.505V234.915H747.874ZM1197.35 291.824H1224.41C1231.76 291.824 1235.44 287.67 1235.44 279.367C1235.44 271.019 1231.76 266.843 1224.41 266.843H1197.35V291.824ZM841.445 191.838C843.764 191.838 845.603 192.517 846.959 193.872C848.318 195.183 848.998 196.996 848.998 199.312V201.871C848.998 204.187 848.318 206.023 846.959 207.378C845.603 208.732 843.764 209.409 841.445 209.409H835.142C832.82 209.409 830.98 208.732 829.625 207.378C828.269 206.023 827.59 204.187 827.589 201.871V199.312C827.59 196.996 828.269 195.183 829.625 193.872C830.98 192.517 832.82 191.838 835.142 191.838H841.445ZM874.408 191.838C876.73 191.838 878.566 192.517 879.925 193.872C881.281 195.183 881.961 196.996 881.961 199.312V201.871C881.96 204.187 881.281 206.023 879.925 207.378C878.566 208.732 876.727 209.409 874.408 209.409H868.105C865.786 209.409 863.947 208.732 862.588 207.378C861.232 206.023 860.555 204.186 860.555 201.871V199.312C860.555 196.995 861.21 195.183 862.526 193.872C863.882 192.517 865.743 191.838 868.105 191.838H874.408ZM1352.06 186.199C1354.2 186.199 1355.72 187.316 1356.59 189.545C1357.86 192.69 1360.69 194.265 1365.06 194.266C1369.48 194.222 1372.31 192.647 1373.53 189.545C1374.41 187.316 1375.94 186.199 1378.13 186.199H1383.52C1385.92 186.2 1387.13 187.316 1387.13 189.545C1387.13 195.532 1385.11 200.274 1381.09 203.771C1377.06 207.267 1371.72 209.016 1365.06 209.016C1358.45 209.016 1353.14 207.266 1349.11 203.771C1345.08 200.274 1343.07 195.532 1343.07 189.545C1343.07 187.316 1344.27 186.199 1346.68 186.199H1352.06ZM811.819 29.499C837.243 29.499 849.955 39.028 849.955 58.085C849.955 66.0037 846.941 72.2479 840.913 76.8164C847.814 81.0803 851.265 87.3676 851.265 95.6777C851.265 105.728 848.098 112.994 841.764 117.476C835.474 121.914 826.431 124.133 814.636 124.133H789.541C780.673 124.133 772.504 121.718 765.034 116.889C757.564 112.016 753.829 105.749 753.829 98.0918C753.829 95.5251 754.593 93.6761 756.122 92.5449C757.651 91.4137 759.136 90.8477 760.578 90.8477H768.31C772.329 90.8478 775.474 93.2626 777.746 98.0918C778.838 100.398 780.672 102.247 783.25 103.64C785.827 105.032 788.688 105.729 791.834 105.729H812.343C817.105 105.728 820.665 104.967 823.024 103.444C825.383 101.922 826.562 99.3324 826.562 95.6777C826.562 92.0231 825.383 89.434 823.024 87.9111C820.665 86.3883 817.105 85.627 812.343 85.627H795.437C793.734 85.6269 792.271 85.0389 791.047 83.8643C789.868 82.6461 789.278 81.1889 789.278 79.4922V74.1406C789.278 72.5308 789.846 71.1167 790.982 69.8984C792.161 68.6367 793.559 68.0059 795.175 68.0059H809.919C815.204 68.0059 819.07 67.2224 821.516 65.6562C824.006 64.0899 825.252 61.5438 825.252 58.0195C825.251 54.452 824.006 51.8846 821.516 50.3184C819.07 48.7522 815.204 47.9697 809.919 47.9697H793.996C786.919 47.9698 782.026 50.6454 779.318 55.9971C777.352 60.0867 774.404 62.1318 770.472 62.1318H762.674C761.888 62.1318 761.036 61.9793 760.119 61.6748C759.245 61.3702 758.328 60.6088 757.367 59.3906C756.45 58.1725 755.991 56.6714 755.991 54.8877C755.991 47.4911 759.748 41.4212 767.261 36.6787C774.775 31.8927 782.922 29.499 791.703 29.499H811.819ZM922.557 29.499C932.474 29.499 941.233 32.0661 948.834 37.2002C956.478 42.3343 960.3 49.3618 960.3 58.2812C960.3 60.8482 959.535 62.6969 958.006 63.8281C956.478 64.9157 954.993 65.4599 953.551 65.46H945.754C941.735 65.4599 938.611 63.0671 936.383 58.2812C933.151 51.4068 927.778 47.9698 920.264 47.9697H908.6C899.034 47.9698 892.547 50.0146 889.139 54.1045C885.732 58.1944 884.028 65.7652 884.028 76.8164C884.028 87.8676 885.732 95.4604 889.139 99.5938C892.547 103.683 899.034 105.728 908.6 105.729H921.64C929.154 105.728 934.505 102.29 937.694 95.416C939.922 90.5867 943.067 88.1719 947.13 88.1719H954.927C955.714 88.1719 956.544 88.3463 957.418 88.6943C958.335 88.999 959.252 89.7605 960.17 90.9785C961.13 92.1532 961.611 93.6324 961.611 95.416C961.611 104.335 957.811 111.363 950.21 116.497C942.609 121.588 933.849 124.133 923.933 124.133H907.945C891.739 124.133 879.573 120.282 871.448 112.581C863.366 104.88 859.325 92.9794 859.325 76.8809C859.325 60.7391 863.366 48.8173 871.448 41.1162C879.573 33.3718 891.739 29.4991 907.945 29.499H922.557ZM190.7 30.0215C195.068 30.0215 198.891 32.0883 202.168 36.2217L220.122 58.9336L238.076 36.2217C241.308 32.1319 245.131 30.065 249.543 30.0215H263.631C265.421 30.0215 266.557 30.6524 267.038 31.9141C267.169 32.2621 267.234 32.632 267.234 33.0234C267.234 33.9806 266.775 35.0469 265.858 36.2217L234.734 75.5107L267.758 117.476C268.676 118.607 269.134 119.673 269.134 120.674C269.134 121.065 269.047 121.413 268.873 121.718C268.392 122.979 267.256 123.61 265.465 123.61H251.508C247.14 123.61 243.34 121.565 240.107 117.476L220.122 92.0879L200.136 117.476C196.904 121.565 193.102 123.61 188.734 123.61H174.777C172.986 123.61 171.85 122.979 171.37 121.718C171.239 121.37 171.152 121.022 171.108 120.674C171.108 119.717 171.567 118.65 172.484 117.476L205.509 75.5107L174.384 36.2217C173.467 35.0904 173.008 34.0242 173.008 33.0234C173.008 32.632 173.074 32.2621 173.205 31.9141C173.685 30.6524 174.821 30.0215 176.612 30.0215H190.7ZM367.358 30.0215C368.974 30.0216 370.307 30.6305 371.355 31.8486C372.447 33.0668 372.993 34.4811 372.993 36.0908V117.606C372.993 119.303 372.381 120.739 371.158 121.914C369.935 123.045 368.472 123.61 366.768 123.61H354.449C352.658 123.61 351.173 123.045 349.994 121.914C348.858 120.739 348.29 119.259 348.29 117.476V101.029H301.701L297.31 117.476C296.873 119.259 295.891 120.739 294.362 121.914C292.833 123.045 291.217 123.61 289.513 123.61H276.604C274.901 123.61 273.613 123.023 272.739 121.849C272.127 121.066 271.821 120.173 271.821 119.173C271.865 118.694 271.953 118.172 272.084 117.606L288.53 55.4746C292.986 38.5494 307.489 30.065 332.04 30.0215H367.358ZM447.823 30.0215C474.208 30.0215 487.401 42.1611 487.401 66.4395C487.445 90.674 474.251 102.791 447.823 102.791H416.436V117.476C416.436 119.172 415.825 120.63 414.602 121.849C413.423 123.023 411.981 123.61 410.277 123.61H397.959C396.255 123.61 394.791 123.023 393.568 121.849C392.345 120.63 391.733 119.172 391.733 117.476V36.2217C391.733 34.5248 392.323 33.0669 393.503 31.8486C394.682 30.6306 396.123 30.0216 397.827 30.0215H447.823ZM518.002 30.0215C519.705 30.0215 521.146 30.6306 522.326 31.8486C523.549 33.0669 524.161 34.5248 524.161 36.2217V105.141H568.194V36.0908C568.194 34.3942 568.784 32.9588 569.964 31.7842C571.187 30.6095 572.65 30.0216 574.353 30.0215H586.738C588.442 30.0215 589.884 30.6304 591.063 31.8486C592.286 33.0669 592.897 34.5248 592.897 36.2217V105.141H599.974C601.678 105.141 603.142 105.75 604.365 106.968C605.588 108.186 606.199 109.644 606.199 111.341V117.476C606.199 119.172 605.588 120.63 604.365 121.849C603.142 123.023 601.678 123.61 599.974 123.61H505.682C503.979 123.61 502.516 123.023 501.293 121.849C500.069 120.63 499.458 119.172 499.458 117.476V36.0908C499.458 34.3941 500.07 32.9588 501.293 31.7842C502.516 30.6095 503.979 30.0215 505.682 30.0215H518.002ZM634.113 30.0215C635.817 30.0215 637.259 30.6304 638.438 31.8486C639.661 33.0669 640.272 34.5248 640.272 36.2217V61.8701H667.269C677.578 61.8701 686.097 64.5898 692.824 70.0283C699.595 75.4669 702.981 83.0378 702.981 92.7402C702.981 102.443 699.595 110.013 692.824 115.452C686.053 120.891 677.535 123.61 667.269 123.61H621.466C619.85 123.61 618.452 123.001 617.273 121.783C616.137 120.521 615.569 119.042 615.569 117.345V36.2217C615.569 34.4379 616.159 32.9589 617.339 31.7842C618.518 30.6094 620.004 30.0215 621.795 30.0215H634.113ZM734.76 30.0215C736.551 30.0215 738.037 30.6305 739.216 31.8486C740.44 33.0669 741.051 34.5248 741.051 36.2217V117.476C741.051 119.172 740.418 120.63 739.151 121.849C737.928 123.023 736.464 123.61 734.76 123.61H722.311C720.608 123.61 719.144 123.045 717.921 121.914C716.697 120.739 716.086 119.303 716.086 117.606V36.2217C716.086 34.5248 716.697 33.0669 717.921 31.8486C719.144 30.6305 720.608 30.0215 722.311 30.0215H734.76ZM992.932 29.8906C994.636 29.8907 996.077 30.5224 997.256 31.7842C998.48 33.0459 999.091 34.5248 999.091 36.2217V67.4834H1013.18C1017.02 67.4834 1020.39 66.4389 1023.27 64.3506C1026.2 62.2621 1028.97 58.8899 1031.59 54.2344L1041.75 36.2217C1044.06 32.0448 1047.21 29.9342 1051.18 29.8906H1066.32C1068.02 29.8906 1069.03 30.5005 1069.34 31.7188C1069.42 32.0231 1069.47 32.3275 1069.47 32.6318C1069.47 33.6326 1069.09 34.8294 1068.35 36.2217L1054.13 61.8701C1052.08 65.6119 1049.76 68.7012 1047.19 71.1377C1044.65 73.5742 1041.33 75.2932 1037.23 76.2939C1040.11 76.9031 1043.06 78.7088 1046.07 81.7109C1049.13 84.713 1051.82 87.9768 1054.13 91.501L1070.51 117.476C1071.26 118.737 1071.63 119.826 1071.63 120.739C1071.63 121.131 1071.56 121.501 1071.43 121.849C1071 123.023 1069.92 123.61 1068.22 123.61H1053.22C1051.51 123.61 1049.68 123.023 1047.71 121.849C1045.75 120.63 1044.22 119.172 1043.12 117.476L1031.59 99.2666C1028.84 94.8288 1026.07 91.5002 1023.27 89.2812C1020.47 87.019 1017.11 85.8877 1013.18 85.8877H999.091V117.606C999.091 119.303 998.48 120.739 997.256 121.914C996.077 123.045 994.636 123.61 992.932 123.61H980.613C978.909 123.61 977.446 123.001 976.223 121.783C975 120.521 974.388 119.042 974.388 117.345V36.2217C974.388 34.5249 975 33.0459 976.223 31.7842C977.446 30.5225 978.909 29.8907 980.613 29.8906H992.932ZM1098.82 30.0215C1100.53 30.0215 1101.97 30.6095 1103.15 31.7842C1104.37 32.9589 1104.98 34.3941 1104.98 36.0908V101.421L1142.27 36.2217C1143.27 34.5248 1144.65 33.0669 1146.39 31.8486C1148.14 30.6304 1149.76 30.0215 1151.24 30.0215H1170.57C1172.28 30.0216 1173.72 30.6306 1174.9 31.8486C1176.08 33.0669 1176.67 34.5248 1176.67 36.2217V117.476C1176.67 119.172 1176.05 120.63 1174.83 121.849C1173.61 123.023 1172.14 123.61 1170.44 123.61H1158.91C1157.21 123.61 1155.74 123.023 1154.52 121.849C1153.34 120.63 1152.75 119.172 1152.75 117.476V56.9102L1118.55 117.476C1117.54 119.172 1116.12 120.63 1114.29 121.849C1112.45 123.023 1110.68 123.61 1108.98 123.61H1087.29C1085.59 123.61 1084.12 123.023 1082.9 121.849C1081.68 120.63 1081.06 119.172 1081.06 117.476V36.2217C1081.06 34.4379 1081.65 32.9589 1082.83 31.7842C1084.01 30.6094 1085.5 30.0215 1087.29 30.0215H1098.82ZM1213.1 30.0215C1214.8 30.0215 1216.24 30.6094 1217.42 31.7842C1218.65 32.9588 1219.26 34.3942 1219.26 36.0908V101.421L1256.54 36.2217C1257.55 34.5249 1258.92 33.0669 1260.67 31.8486C1262.42 30.6305 1264.03 30.0215 1265.52 30.0215H1284.85C1286.55 30.0215 1287.99 30.6304 1289.17 31.8486C1290.35 33.0669 1290.94 34.5248 1290.94 36.2217V117.476C1290.94 119.172 1290.33 120.63 1289.11 121.849C1287.89 123.023 1286.42 123.61 1284.72 123.61H1273.19C1271.48 123.61 1270.02 123.023 1268.8 121.849C1267.62 120.63 1267.03 119.172 1267.03 117.476V56.9102L1232.82 117.476C1231.82 119.172 1230.4 120.63 1228.56 121.849C1226.73 123.023 1224.96 123.61 1223.26 123.61H1201.57C1199.86 123.61 1198.4 123.023 1197.18 121.849C1195.95 120.63 1195.34 119.172 1195.34 117.476V36.2217C1195.34 34.438 1195.93 32.9589 1197.11 31.7842C1198.29 30.6094 1199.78 30.0215 1201.57 30.0215H1213.1ZM640.272 105.141H667.269C674.608 105.141 678.277 101.007 678.277 92.7402C678.277 84.4302 674.608 80.2754 667.269 80.2754H640.272V105.141ZM416.436 84.3213H440.353C447.692 84.3213 453.262 83.1034 457.062 80.667C460.863 78.187 462.763 73.4443 462.763 66.4395C462.763 59.3909 460.863 54.6485 457.062 52.2119C453.262 49.7319 447.692 48.4912 440.353 48.4912H416.436V84.3213ZM329.615 48.4912C325.421 48.4912 321.751 49.688 318.606 52.0811C315.505 54.4305 313.408 57.6067 312.316 61.6094L306.549 82.5596H348.29V48.4912H329.615ZM1230.14 0C1232.28 0 1233.78 1.10929 1234.66 3.32812C1235.92 6.46081 1238.74 8.02734 1243.11 8.02734C1247.52 7.98372 1250.34 6.41719 1251.56 3.32812C1252.44 1.10936 1253.96 4.13363e-05 1256.15 0H1261.52C1263.92 0 1265.13 1.10938 1265.13 3.32812C1265.13 9.28889 1263.12 14.0105 1259.1 17.4912C1255.08 20.9719 1249.75 22.7118 1243.11 22.7119C1236.51 22.7119 1231.21 20.9717 1227.19 17.4912C1223.17 14.0104 1221.16 9.28893 1221.16 3.32812C1221.16 1.10938 1222.36 0 1224.76 0H1230.14Z" fill="white"/>
</svg>
